<svg xmlns="http://www.w3.org/2000/svg" viewBox="0 0 128 128">
	<linearGradient id="myGradient">
		<stop offset="0" stop-color="red"/>
		<stop offset="0.20" stop-color="#ff0"/>
		<stop offset="0.30" stop-color="#0f0"/>
		<stop offset="0.45" stop-color="cyan"/>
		<stop offset="0.60" stop-color="blue"/>
		<stop offset="0.90" stop-color="#f0f"/>
		<stop offset="0.95" stop-color="red"/>
		<animateTransform attributeName="gradientTransform" attributeType="XML" type="rotate" from="0 0.5 0.5" to="360 0.5 0.5" dur="10s" repeatCount="indefinite"/>
	</linearGradient>
	<path fill="#1572B6" d="M18.814 114.123L8.76 1.352h110.48l-10.064 112.754-45.243 12.543-45.119-12.526z"/>
	<path fill="#33A9DC" d="M64.001 117.062l36.559-10.136 8.601-96.354h-45.16v106.49z"/>
	<path fill="url(#myGradient)" d="M64.048 23.435v13.831H30.64l-.277-3.108-.63-7.012-.331-3.711h34.646zm-.047 27.996v13.831H48.792l-.277-3.108-.631-7.012-.33-3.711h16.447z M64.001 51.429h18.302l1.264-14.163H64.001V23.435h34.682l-.332 3.711-3.4 38.114h-30.95V51.429z M81.127 64.675l-1.666 18.522-15.426 4.164v14.49l28.354-7.358.208-2.337 2.406-26.881H81.127z M64.083 87.349l-.061.018-15.403-4.159-.985-11.031H33.752l1.937 21.717 28.331 7.863.063-.018v-14.39z"/>
</svg>